<?xml version="1.0" standalone="no"?>
<!DOCTYPE svg PUBLIC "-//W3C//DTD SVG 20010904//EN"
 "http://www.w3.org/TR/2001/REC-SVG-20010904/DTD/svg10.dtd">
<svg version="1.0" xmlns="http://www.w3.org/2000/svg"
 width="800.000000pt" height="800.000000pt" viewBox="0 0 800.000000 800.000000"
 preserveAspectRatio="xMidYMid meet">

<g transform="translate(0.000000,800.000000) scale(0.100000,-0.100000)"
fill="#000000" stroke="none">
<path d="M3551 6621 c8 -11 46 -62 85 -113 96 -126 159 -217 153 -221 -10 -9
-290 -107 -305 -107 -9 0 -45 16 -80 35 -89 50 -134 47 -78 -6 14 -13 35 -37
47 -53 18 -26 19 -29 4 -38 -24 -13 -21 -26 6 -30 20 -3 22 -7 19 -61 -3 -52
-1 -58 14 -55 10 2 34 33 53 70 27 49 43 68 61 72 14 3 91 20 173 39 130 31
147 33 147 18 0 -9 -9 -83 -21 -165 -11 -81 -19 -152 -17 -158 10 -28 54 45
123 202 42 96 82 180 88 186 7 6 71 35 143 64 140 56 193 88 179 110 -13 20
-136 5 -243 -30 -50 -16 -98 -30 -106 -30 -8 0 -103 65 -212 145 -125 91 -207
145 -222 145 -22 0 -23 -2 -11 -19z"/>
<path d="M3869 5650 c-281 -48 -552 -218 -701 -440 -33 -50 -34 -55 -17 -58
10 -2 19 -7 19 -12 0 -5 16 -12 35 -16 41 -7 39 -23 -2 -17 l-28 4 22 -19 22
-20 -28 -5 c-15 -3 -38 -3 -49 0 -17 4 -20 9 -12 23 14 26 -9 38 -27 15 -22
-31 -95 -229 -78 -213 5 5 13 -2 19 -15 15 -29 42 -29 39 1 -2 13 4 34 14 48
12 19 13 28 4 37 -19 19 -14 65 9 72 24 8 60 -11 60 -30 0 -20 39 -19 46 0 5
12 10 13 20 4 8 -6 14 -17 14 -25 0 -7 10 -16 21 -19 17 -6 19 -9 8 -17 -10
-7 -8 -8 9 -5 14 3 22 0 22 -8 0 -17 -38 -45 -61 -45 -20 0 -79 -47 -79 -63 0
-6 10 -1 23 11 29 27 34 27 32 2 -1 -12 -15 -34 -31 -50 -82 -81 -93 -96 -92
-127 1 -20 -8 -43 -25 -63 -23 -26 -26 -39 -22 -73 3 -29 2 -34 -3 -17 -5 17
-16 26 -35 28 -25 3 -27 1 -27 -35 1 -73 55 -275 90 -330 9 -15 10 -10 8 24
-2 23 -1 40 1 37 2 -2 13 11 24 29 18 29 21 30 27 12 6 -17 8 -17 16 -3 15 26
76 26 104 0 13 -12 34 -22 46 -22 34 0 50 -26 37 -60 -9 -24 -8 -30 5 -35 8
-3 18 -1 22 5 8 12 88 3 108 -13 19 -15 14 -49 -12 -87 -12 -19 -29 -59 -36
-89 -10 -42 -22 -63 -57 -96 l-44 -43 60 -47 c69 -52 199 -124 281 -154 133
-48 178 -55 360 -56 160 0 183 2 272 27 123 35 210 74 314 143 184 123 368
359 380 490 13 135 15 142 44 168 24 22 29 35 35 99 4 40 5 89 3 108 -2 29 -7
35 -24 32 -32 -4 -36 23 -8 55 22 24 25 35 21 79 -3 29 -13 80 -23 115 -15 55
-19 60 -27 41 -8 -17 -6 -27 6 -40 23 -25 21 -57 -5 -82 -19 -18 -23 -18 -38
-5 -20 18 -37 19 -43 3 -2 -7 -7 1 -11 19 -5 20 -12 30 -20 27 -9 -3 -16 7
-20 30 -4 19 -10 37 -14 40 -20 12 -125 -121 -137 -174 -4 -19 -13 -43 -21
-54 -11 -17 -13 -15 -23 22 -6 22 -12 63 -12 91 -1 28 -6 51 -10 51 -5 0 -9
-4 -9 -10 0 -5 -5 -10 -12 -10 -6 0 -8 3 -5 6 3 4 -5 15 -18 26 -18 14 -29 17
-43 9 -10 -5 -42 -9 -71 -9 -39 1 -56 6 -66 21 -7 10 -18 16 -24 12 -17 -10
-13 -40 8 -66 17 -21 23 -22 40 -12 20 12 51 8 51 -7 0 -31 -61 -104 -134
-157 -38 -29 -46 -29 -46 3 0 14 -6 38 -14 52 -8 15 -22 46 -32 70 -10 24 -26
48 -37 54 -16 8 -19 7 -15 -3 3 -8 13 -41 23 -74 9 -33 25 -75 34 -94 38 -81
43 -83 86 -55 16 11 25 12 25 5 0 -21 -41 -93 -82 -144 -61 -78 -78 -118 -78
-187 0 -57 -3 -63 -40 -104 -28 -30 -40 -52 -40 -73 0 -17 -9 -38 -20 -48 -11
-10 -20 -23 -20 -29 0 -28 -73 -117 -111 -137 -23 -11 -43 -19 -45 -17 -2 3
-6 58 -8 123 -3 91 -1 127 11 156 10 27 13 54 9 91 -4 29 -8 77 -9 107 l-2 54
-39 4 c-24 2 -45 -1 -55 -10 -15 -13 -74 -37 -92 -37 -5 0 -23 19 -39 42 -30
40 -30 44 -24 117 7 75 27 131 65 180 11 13 19 30 19 38 0 40 94 109 189 138
21 6 23 5 19 -18 -4 -21 0 -26 31 -37 20 -6 42 -14 48 -16 7 -3 17 5 22 20 9
21 15 24 43 20 19 -3 49 1 70 10 30 13 40 24 49 56 13 43 8 59 -13 43 -7 -6
-26 -10 -43 -9 -48 2 -45 35 5 66 23 14 48 24 57 22 46 -10 87 29 47 45 -9 3
-19 15 -23 26 -7 18 -9 18 -23 3 -19 -19 -32 -21 -22 -4 5 8 2 9 -10 5 -10 -4
-19 -7 -22 -7 -8 0 -34 -60 -34 -80 0 -11 -7 -20 -15 -20 -26 0 -41 -22 -37
-54 l4 -31 -16 29 c-9 15 -16 35 -16 42 0 8 -4 14 -8 14 -5 0 -19 9 -32 20
-29 25 -40 25 -40 1 0 -11 12 -29 28 -41 l27 -21 -25 6 c-14 4 -31 14 -38 23
-10 14 -16 14 -32 4 -11 -6 -27 -12 -35 -12 -9 0 -20 -11 -25 -24 -5 -13 -14
-27 -19 -31 -6 -3 -11 -14 -11 -23 -1 -29 -29 -56 -61 -58 -30 -2 -30 -2 -27
44 3 45 4 47 35 50 45 4 64 39 36 62 -20 16 -20 16 6 28 14 6 37 29 50 49 29
45 60 72 81 73 34 0 100 33 100 50 0 10 10 20 21 23 15 4 20 11 16 21 -4 10
-1 16 6 16 7 0 22 7 33 16 18 15 18 15 -6 11 -14 -2 -32 -8 -41 -11 -26 -11
-32 22 -9 46 23 25 25 38 7 38 -8 0 -29 -19 -47 -41 -25 -32 -31 -46 -23 -57
6 -11 5 -25 -4 -44 -20 -39 -28 -41 -43 -13 -13 24 -14 24 -32 8 -17 -15 -20
-15 -28 -3 -15 24 -12 36 15 50 14 8 35 34 48 58 24 50 85 103 135 120 24 8
31 8 26 0 -5 -8 6 -10 37 -6 24 3 55 2 69 -1 l25 -7 -22 -12 c-12 -7 -33 -12
-47 -12 -25 0 -25 -1 -9 -20 23 -26 36 -25 64 5 13 13 30 25 37 25 6 0 12 7
12 16 0 8 5 12 11 9 5 -4 18 0 28 9 10 9 28 15 41 13 28 -5 82 13 102 34 15
14 10 19 -50 49 -93 45 -192 78 -291 95 -88 16 -264 18 -342 5z m-144 -180
c-3 -5 -12 -10 -18 -10 -7 0 -6 4 3 10 19 12 23 12 15 0z m-147 -18 c-27 -8
-48 -19 -48 -24 0 -4 12 -3 26 3 15 5 29 7 32 5 2 -3 13 -1 23 5 14 7 19 6 19
-2 0 -8 4 -8 13 -2 6 6 19 13 28 16 15 5 15 3 2 -25 -13 -25 -13 -32 -2 -39
11 -7 10 -9 -3 -9 -20 0 -25 -16 -7 -22 18 -6 -1 -36 -27 -42 -33 -9 -31 -26
4 -27 26 -1 26 -1 -5 -10 -37 -11 -45 -29 -10 -23 13 2 6 -3 -15 -14 -21 -10
-45 -25 -55 -34 -10 -9 -32 -22 -48 -31 -19 -9 -36 -30 -45 -51 -11 -28 -19
-36 -39 -36 -24 0 -68 19 -46 20 6 0 2 5 -8 11 -14 8 -16 14 -7 24 17 20 8 59
-14 63 -11 2 -27 14 -37 25 -13 16 -27 21 -58 21 l-41 -1 20 27 c27 38 88 90
105 90 8 0 15 5 15 10 0 6 11 10 25 10 22 0 82 28 111 51 6 5 30 11 53 13 24
2 45 7 48 10 4 3 13 6 22 5 9 0 -5 -8 -31 -17z m434 -274 c-7 -7 -12 -8 -12
-2 0 14 12 26 19 19 2 -3 -1 -11 -7 -17z m-135 -25 c-4 -4 5 -20 20 -36 27
-28 28 -29 9 -43 -24 -17 -35 -4 -28 33 3 18 1 24 -7 19 -6 -4 -11 -5 -11 -2
0 2 -3 11 -6 20 -4 11 0 16 12 16 9 0 14 -3 11 -7z m-41 -78 c-7 -18 -26 -20
-26 -2 0 18 24 41 28 27 2 -6 1 -17 -2 -25z m1124 -381 c0 -14 -4 -22 -10 -19
-5 3 -10 17 -10 31 0 14 4 22 10 19 6 -3 10 -17 10 -31z m-27 -34 c28 -33 42
-68 32 -78 -7 -7 -18 5 -60 71 -30 46 -9 52 28 7z m-615 -475 c-18 -43 -39
-80 -47 -83 -14 -5 -14 -3 6 74 8 30 65 106 71 94 1 -4 -12 -42 -30 -85z"/>
<path d="M2983 4615 c0 -33 2 -45 4 -27 2 18 2 45 0 60 -2 15 -4 0 -4 -33z"/>
<path d="M3220 3946 c0 -2 8 -10 18 -17 15 -13 16 -12 3 4 -13 16 -21 21 -21
13z"/>
<path d="M3580 2224 c0 -59 -2 -65 -17 -59 -64 24 -121 7 -148 -45 -19 -37
-19 -122 0 -159 25 -50 112 -65 145 -26 10 12 15 11 30 -7 10 -13 23 -19 33
-15 15 6 17 28 17 192 l0 185 -30 0 -30 0 0 -66z m-12 -106 c18 -18 15 -118
-5 -140 -20 -22 -66 -24 -87 -2 -21 20 -21 102 0 132 17 25 71 31 92 10z"/>
<path d="M4120 2100 l0 -190 30 0 30 0 0 100 c0 97 1 101 24 111 14 7 36 9 50
5 25 -6 25 -8 28 -109 l3 -102 28 -3 27 -3 0 106 c0 58 -5 115 -10 125 -6 11
-28 24 -49 31 -31 9 -43 8 -69 -5 l-32 -17 0 71 0 70 -30 0 -30 0 0 -190z"/>
<path d="M5830 2100 l0 -190 30 0 30 0 0 190 0 190 -30 0 -30 0 0 -190z"/>
<path d="M6130 2224 c0 -59 -2 -65 -17 -59 -65 25 -113 12 -143 -37 -24 -40
-27 -126 -5 -167 26 -51 103 -64 146 -25 15 13 17 12 22 -6 4 -16 12 -21 29
-18 l23 3 3 188 2 187 -30 0 -30 0 0 -66z m-12 -106 c18 -18 15 -118 -5 -140
-20 -22 -66 -24 -87 -2 -21 20 -21 102 0 132 17 25 71 31 92 10z"/>
<path d="M1994 2097 l-71 -182 24 -3 c30 -4 49 11 58 46 11 46 23 52 100 52
l73 0 17 -42 c19 -48 29 -58 64 -58 15 0 21 5 18 13 -3 6 -35 90 -72 185 l-68
172 -36 0 -36 0 -71 -183z m166 -39 c0 -5 -27 -8 -60 -8 -33 0 -60 2 -60 4 0
3 10 32 56 156 5 12 63 -127 64 -152z"/>
<path d="M3780 2255 c0 -24 3 -25 55 -25 l54 0 3 -157 3 -158 33 -3 32 -3 0
160 0 161 55 0 c52 0 55 1 55 25 l0 25 -145 0 -145 0 0 -25z"/>
<path d="M4763 2268 c2 -7 28 -91 57 -186 l53 -173 30 3 c29 3 31 7 69 128 22
69 43 129 47 133 4 4 27 -53 51 -128 44 -136 44 -136 73 -133 29 3 30 7 83
177 30 95 54 178 54 183 0 5 -15 8 -32 6 l-33 -3 -35 -127 c-19 -71 -37 -128
-40 -128 -3 0 -23 58 -45 128 -40 124 -42 127 -70 127 -28 0 -29 -3 -73 -135
l-45 -134 -19 69 c-56 208 -55 205 -94 205 -25 0 -35 -4 -31 -12z"/>
<path d="M2404 2155 c-25 -25 -26 -25 -31 -5 -3 13 -14 20 -29 20 l-24 0 0
-130 0 -130 30 0 30 0 0 83 c0 100 14 127 66 127 31 0 34 2 34 30 0 25 -4 30
-25 30 -14 0 -37 -11 -51 -25z"/>
<path d="M2583 2165 c-39 -17 -65 -64 -65 -119 1 -82 34 -123 110 -133 81 -11
142 47 142 134 0 50 -18 82 -59 110 -38 26 -81 29 -128 8z m111 -57 c22 -31
20 -100 -2 -128 -22 -27 -65 -29 -92 -5 -26 23 -28 110 -3 137 23 26 78 24 97
-4z"/>
<path d="M3205 2163 c-20 -11 -30 -12 -33 -4 -2 6 -15 11 -28 11 l-24 0 0
-130 0 -130 30 0 30 0 0 100 c0 108 6 120 64 120 37 0 46 -27 46 -129 l0 -91
30 0 30 0 -1 88 c0 103 -15 152 -49 169 -33 17 -59 16 -95 -4z"/>
<path d="M4463 2165 c-61 -26 -85 -123 -49 -193 31 -61 128 -79 193 -37 21 14
23 19 12 31 -12 11 -20 11 -53 0 -58 -20 -94 -3 -110 52 -7 22 -6 22 83 22 91
0 91 0 91 25 0 42 -29 85 -65 101 -42 17 -61 17 -102 -1z m105 -52 c25 -34 15
-43 -48 -43 -53 0 -60 2 -60 19 0 46 78 63 108 24z"/>
<path d="M5373 2166 c-81 -37 -96 -162 -28 -226 35 -33 109 -38 153 -10 56 35
76 108 48 175 -26 61 -108 90 -173 61z m91 -42 c25 -10 38 -75 24 -120 -23
-68 -104 -64 -122 7 -20 83 29 139 98 113z"/>
<path d="M5695 2156 c-23 -23 -25 -23 -30 -5 -4 12 -15 19 -31 19 l-24 0 0
-130 0 -130 30 0 30 0 0 83 c0 95 18 127 69 127 23 0 30 5 33 25 3 13 3 27 0
30 -13 13 -55 3 -77 -19z"/>
<path d="M2822 2064 c3 -102 4 -107 31 -130 32 -27 66 -30 106 -9 26 13 30 13
41 0 7 -8 21 -15 31 -15 18 0 19 9 19 130 l0 130 -30 0 -30 0 0 -95 c0 -102
-7 -115 -62 -115 -41 0 -48 18 -48 117 l0 93 -31 0 -31 0 4 -106z"/>
<path d="M3160 1730 c0 -5 9 -10 20 -10 18 0 20 -7 20 -70 0 -56 3 -70 15 -70
12 0 15 14 15 70 0 68 1 70 25 70 14 0 25 5 25 10 0 6 -27 10 -60 10 -33 0
-60 -4 -60 -10z"/>
<path d="M3310 1660 c0 -64 3 -80 15 -80 10 0 15 11 15 35 0 19 4 35 9 35 5 0
18 -16 30 -35 11 -19 28 -35 36 -35 14 0 14 5 -5 35 -19 31 -20 37 -6 56 27
39 3 69 -56 69 l-38 0 0 -80z m68 48 c8 -8 9 -15 1 -25 -18 -21 -39 -15 -39
12 0 27 18 33 38 13z"/>
<path d="M3471 1673 c-12 -38 -25 -74 -28 -80 -2 -8 3 -13 12 -13 9 0 19 9 22
20 4 15 14 20 38 20 25 0 35 -5 40 -20 3 -11 13 -20 22 -20 8 0 13 6 11 13 -3
6 -15 42 -27 80 -19 56 -26 67 -45 67 -18 0 -26 -11 -45 -67z m63 0 c6 -20 4
-23 -17 -23 -24 0 -25 1 -14 35 11 36 17 34 31 -12z"/>
<path d="M3618 1661 c34 -105 52 -108 83 -13 12 37 24 73 27 80 2 6 -2 12 -10
12 -9 0 -22 -23 -33 -60 -10 -33 -21 -58 -24 -55 -3 4 -12 29 -21 58 -10 32
-22 53 -32 55 -14 3 -13 -8 10 -77z"/>
<path d="M3760 1660 l0 -80 45 0 c33 0 45 4 45 15 0 10 -10 15 -30 15 -23 0
-30 4 -30 20 0 16 7 20 30 20 20 0 30 5 30 15 0 10 -10 15 -30 15 -23 0 -30 4
-30 20 0 16 7 20 30 20 17 0 30 5 30 10 0 6 -20 10 -45 10 l-45 0 0 -80z"/>
<path d="M3890 1660 l0 -80 50 0 c38 0 50 4 50 15 0 10 -11 15 -35 15 l-35 0
0 65 c0 51 -3 65 -15 65 -12 0 -15 -16 -15 -80z"/>
<path d="M4115 1730 c-3 -6 -17 -42 -30 -80 -20 -59 -21 -70 -8 -70 8 0 17 9
20 20 4 15 14 20 38 20 25 0 35 -5 40 -20 6 -19 35 -29 35 -12 0 4 -12 40 -26
80 -20 53 -31 72 -45 72 -10 0 -21 -5 -24 -10z m39 -57 c6 -19 3 -23 -13 -23
-22 0 -25 10 -14 49 6 25 14 18 27 -26z"/>
<path d="M4250 1718 c-45 -48 -11 -138 52 -138 47 0 58 9 58 51 0 37 -2 39
-30 39 -32 0 -40 -14 -15 -24 17 -6 20 -32 5 -41 -6 -4 -22 1 -35 9 -49 32
-18 115 39 104 15 -3 27 0 30 8 10 25 -80 18 -104 -8z"/>
<path d="M4400 1660 l0 -80 45 0 c33 0 45 4 45 15 0 10 -10 15 -30 15 -23 0
-30 4 -30 20 0 16 7 20 30 20 20 0 30 5 30 15 0 10 -10 15 -31 15 -24 0 -30 4
-27 18 2 10 14 18 31 20 44 5 31 22 -18 22 l-45 0 0 -80z"/>
<path d="M4530 1660 c0 -63 3 -80 15 -80 10 0 15 16 17 61 l3 61 35 -61 c22
-38 42 -61 53 -61 15 0 17 10 17 80 0 94 -18 109 -22 19 l-3 -62 -34 62 c-27
47 -40 61 -58 61 -22 0 -23 -3 -23 -80z"/>
<path d="M4735 1720 c-26 -28 -23 -100 6 -122 22 -19 46 -22 73 -12 26 10 18
24 -12 22 -40 -3 -52 9 -52 51 0 46 20 66 55 57 18 -5 25 -2 25 9 0 23 -72 20
-95 -5z"/>
<path d="M4874 1696 c15 -26 26 -60 26 -80 0 -25 4 -36 15 -36 10 0 15 10 15
33 0 17 12 50 25 72 29 46 30 55 10 55 -8 0 -22 -15 -31 -32 l-17 -33 -15 33
c-10 20 -23 32 -35 32 -18 0 -17 -3 7 -44z"/>
</g>
</svg>
